<?xml version="1.0" encoding="UTF-8" standalone="no"?>
<svg
   viewBox="0 0 316 316"
   version="1.1"
   id="svg1"
   sodipodi:docname="ApplicationLogo.svg"
   inkscape:version="1.3 (0e150ed6c4, 2023-07-21)"
   xmlns:inkscape="http://www.inkscape.org/namespaces/inkscape"
   xmlns:sodipodi="http://sodipodi.sourceforge.net/DTD/sodipodi-0.dtd"
   xmlns="http://www.w3.org/2000/svg"
   xmlns:svg="http://www.w3.org/2000/svg">
  <defs
     id="defs1">
    <inkscape:path-effect
       effect="bspline"
       id="path-effect62"
       is_visible="true"
       lpeversion="1.3"
       weight="33.333333"
       steps="2"
       helper_size="0"
       apply_no_weight="true"
       apply_with_weight="true"
       only_selected="false"
       uniform="false" />
    <inkscape:path-effect
       effect="bspline"
       id="path-effect7"
       is_visible="true"
       lpeversion="1.3"
       weight="33.333333"
       steps="2"
       helper_size="0"
       apply_no_weight="true"
       apply_with_weight="true"
       only_selected="false"
       uniform="false" />
    <inkscape:path-effect
       effect="bspline"
       id="path-effect6"
       is_visible="true"
       lpeversion="1.3"
       weight="33.333333"
       steps="2"
       helper_size="0"
       apply_no_weight="true"
       apply_with_weight="true"
       only_selected="false"
       uniform="false" />
    <inkscape:path-effect
       effect="bspline"
       id="path-effect5"
       is_visible="true"
       lpeversion="1.3"
       weight="33.333333"
       steps="2"
       helper_size="0"
       apply_no_weight="true"
       apply_with_weight="true"
       only_selected="false"
       uniform="false" />
  </defs>
  <sodipodi:namedview
     id="namedview1"
     pagecolor="#ffffff"
     bordercolor="#000000"
     borderopacity="0.25"
     inkscape:showpageshadow="2"
     inkscape:pageopacity="0.0"
     inkscape:pagecheckerboard="0"
     inkscape:deskcolor="#d1d1d1"
     inkscape:zoom="1.3528481"
     inkscape:cx="40.654971"
     inkscape:cy="126.03041"
     inkscape:window-width="1920"
     inkscape:window-height="1111"
     inkscape:window-x="-9"
     inkscape:window-y="-9"
     inkscape:window-maximized="1"
     inkscape:current-layer="svg1" />
  <path
     id="path1"
     style="fill:#1a1a1a;stroke:none;stroke-width:10;stroke-dasharray:none"
     d="M 158 4 C 86.609698 3.9997835 28.736113 61.873372 28.736328 133.26367 C 28.872836 198.48976 77.408745 252.68624 140.87305 261.10547 A 112.65646 115.78252 0 0 1 45.34375 146.74414 A 112.65646 115.78252 0 0 1 158 30.962891 A 112.65646 115.78252 0 0 1 270.65625 146.74414 A 112.65646 115.78252 0 0 1 175.12695 261.10547 C 238.59125 252.68624 287.12716 198.48976 287.26367 133.26367 C 287.26389 61.873373 229.3903 3.9997846 158 4 z M 158 39.478516 C 128.50445 39.478069 104.59337 73.75397 104.59375 133.35742 C 104.59389 189.357 125.70196 235.38691 152.7168 240.74805 L 152.7168 262.13867 A 112.65646 115.78252 0 0 0 158 262.52734 A 112.65646 115.78252 0 0 0 163.2832 262.13867 L 163.2832 240.74805 C 190.29804 235.38691 211.40611 189.357 211.40625 133.35742 C 211.40663 73.75397 187.49554 39.478069 158 39.478516 z M 163.2832 262.13867 L 163.2832 262.14844 C 165.93957 262.03979 168.56643 261.82414 171.17773 261.55859 A 112.65646 115.78252 0 0 1 163.2832 262.13867 z M 163.2832 262.14844 C 161.52491 262.31081 159.76347 262.43714 158 262.52734 C 156.23653 262.43714 154.47509 262.31081 152.7168 262.14844 L 152.7168 280.08594 C 141.42169 280.2191 130.41846 280.75347 121.72656 281.74023 L 41.263672 290.875 C 21.167883 293.15641 21.167883 296.82797 41.263672 299.10938 L 121.72656 308.24414 C 141.82235 310.52555 174.17765 310.52555 194.27344 308.24414 L 274.73633 299.10938 C 294.83212 296.82797 294.83212 293.15641 274.73633 290.875 L 194.27344 281.74023 C 185.58154 280.75347 174.57831 280.2191 163.2832 280.08594 L 163.2832 262.14844 z M 152.7168 262.14844 L 152.7168 262.13867 A 112.65646 115.78252 0 0 1 144.82227 261.55859 C 147.43357 261.82414 150.06042 262.03979 152.7168 262.14844 z M 158 41.734375 C 182.80023 41.735575 202.90457 78.041739 202.9043 133.35742 C 202.90409 184.68301 185.59166 215.04755 163.2832 219.16406 L 163.2832 197.56445 C 167.1739 195.36882 172.81313 191.24184 177.09766 182.27344 C 182.4535 171.0625 190.41405 142.41167 193.60156 123.68945 L 188.71094 133.61719 C 180.73145 151.13929 179.55141 159.82303 174.45508 170.92188 C 171.59118 177.15887 166.89669 184.47966 163.2832 190.36328 L 163.2832 124.33398 C 165.58415 122.13969 168.31041 118.56674 170.48828 112.43945 C 173.99038 102.58659 176.07397 86.13199 178.1582 69.677734 C 172.50682 83.80339 166.86593 97.908185 163.2832 107.78125 L 163.2832 64.521484 C 163.2832 60.226568 160.92637 56.769531 158 56.769531 C 155.07363 56.769531 152.7168 60.226568 152.7168 64.521484 L 152.7168 107.78125 C 149.13407 97.908187 143.49318 83.803394 137.8418 69.677734 C 139.92603 86.131992 142.00962 102.58659 145.51172 112.43945 C 147.68959 118.56674 150.41585 122.13969 152.7168 124.33398 L 152.7168 190.36523 C 149.10317 184.4813 144.40913 177.15953 141.54492 170.92188 C 136.44859 159.82303 135.26855 151.13929 127.28906 133.61719 L 122.39844 123.68945 C 125.58595 142.41167 133.54455 171.0625 138.90039 182.27344 C 143.18492 191.24184 148.8261 195.36882 152.7168 197.56445 L 152.7168 219.16406 C 130.40836 215.04768 113.09591 184.68301 113.0957 133.35742 C 113.09543 78.041739 133.19977 41.735575 158 41.734375 z " />
</svg>
