<svg width="710" height="468" viewBox="0 0 710 468" fill="none" xmlns="http://www.w3.org/2000/svg">
<path d="M66.333 338.418C35.1676 308.104 7.55856 271.054 1.38162 227.922C-12.0953 135.11 75.3176 57.922 163.479 87.3002C193.241 97.2176 223.19 111.626 254.542 108.258C285.24 104.89 311.164 85.0547 336.621 67.4652C379.859 37.5257 427.216 11.6093 478.971 2.81459C593.338 -16.5525 698.814 66.1554 690.858 185.446C686.273 254.4 643.876 314.653 597.456 363.118C533.627 429.733 448.273 468.093 355.9 468C248.833 467.813 141.673 411.676 66.333 338.418Z" fill="#F2F9F6"/>
<path d="M241.908 90.3886C272.973 90.3886 298.156 78.6179 298.156 64.098C298.156 49.5781 272.973 37.8074 241.908 37.8074C210.843 37.8074 185.661 49.5781 185.661 64.098C185.661 78.6179 210.843 90.3886 241.908 90.3886Z" fill="#F2F9F6"/>
<path d="M307.139 54.7408C307.139 61.7689 301.03 68.2476 290.881 72.9914C280.762 77.721 266.757 80.6565 251.267 80.6565C235.777 80.6565 221.771 77.721 211.652 72.9914C201.503 68.2476 195.394 61.7689 195.394 54.7408C195.394 47.7128 201.503 41.234 211.652 36.4903C221.771 31.7606 235.777 28.8252 251.267 28.8252C266.757 28.8252 280.762 31.7606 290.881 36.4903C301.03 41.234 307.139 47.7128 307.139 54.7408Z" stroke="#B2DCC7" stroke-width="0.75"/>
<path d="M20.4714 227.869L20.4713 227.868C7.03161 135.312 94.2014 58.3723 182.079 87.6559C187.856 89.5807 193.652 91.6801 199.471 93.7871C208.602 97.0942 217.787 100.42 227.028 103.121C242.177 107.548 257.556 110.322 273.301 108.631L273.302 108.631C301.387 105.549 325.485 88.736 348.782 72.4821C351.046 70.903 353.301 69.3292 355.552 67.7738L355.553 67.7735C398.774 37.846 446.077 11.9655 497.752 3.18429C611.911 -16.1476 717.14 66.4027 709.203 185.421C704.626 254.24 662.307 314.412 615.904 362.859C552.142 429.404 466.885 467.718 374.619 467.625C267.676 467.438 160.604 411.36 85.3131 338.149C54.1688 307.856 26.6308 270.878 20.4714 227.869Z" stroke="#B2DCC7" stroke-width="0.75"/>
<mask id="mask0" mask-type="alpha" maskUnits="userSpaceOnUse" x="18" y="0" width="693" height="468">
<path d="M85.0516 338.418C53.8862 308.104 26.2772 271.054 20.1002 227.922C6.62329 135.11 94.0363 57.922 182.198 87.3002C211.96 97.2176 241.908 111.626 273.261 108.258C303.958 104.89 329.883 85.0547 355.339 67.4652C398.578 37.5257 445.934 11.6093 497.689 2.81459C612.056 -16.5525 717.532 66.1554 709.577 185.446C704.991 254.4 662.595 314.653 616.174 363.118C552.346 429.733 466.992 468.093 374.619 468C267.552 467.813 160.391 411.676 85.0516 338.418Z" fill="#C4C4C4"/>
</mask>
<g mask="url(#mask0)">
<path d="M249.935 335.842C249.935 335.842 261.137 412.745 269.223 504.257C269.375 505.962 268.014 507.446 266.339 507.798C263.87 508.318 260.239 508.936 257.233 508.85C255.628 508.805 254.288 507.615 254.016 506.035C251.261 489.899 231.608 403.305 226.449 384.245C226.449 384.245 220.523 465.202 222.418 507.204C222.465 508.248 221.7 509.155 220.659 509.275C219.081 509.458 216.559 509.596 213.347 509.255C212.129 509.126 211.145 508.205 210.97 506.993C209.008 493.338 197.717 412.056 198.197 353.502C198.224 350.201 202.074 323.071 202.074 323.071L249.935 335.842Z" fill="#464F54"/>
<path d="M345.971 262.318C345.971 262.318 342.833 254.071 339.171 254.826C335.508 255.582 331.499 258.392 331.499 258.392L325.614 266.343C325.614 266.343 342.134 272.844 347.945 269.117C347.945 269.117 364.82 272.03 386.13 268.536C383.045 262.031 381.207 255.516 380.127 250.462C369.336 256.568 357.71 261.126 345.971 262.318Z" fill="#FBCFB5"/>
<path d="M435.36 202.499C435.36 202.499 411.2 232.896 380.129 250.465C381.209 255.521 383.047 262.033 386.132 268.539C402.25 265.898 420.904 259.591 436.718 245.581L435.36 202.499Z" fill="#F57B31"/>
<path d="M254.277 206.519L255.778 246.761C260.038 248.227 264.094 249.364 267.956 250.216C270.371 242.447 275.691 232.909 280.049 225.82C264.044 220.165 254.277 206.519 254.277 206.519Z" fill="#299E63"/>
<path d="M334.184 205.834C312.229 229.513 294.459 230.906 280.049 225.818C275.693 232.909 270.371 242.445 267.956 250.214C326.587 263.125 340.393 209.284 340.393 209.284L334.184 205.834Z" fill="#FBCFB5"/>
<path d="M338.636 203.319C338.636 203.319 341.165 200.606 345.846 201.458C350.527 202.311 354.693 203.934 357.61 201.458C360.526 198.982 361.551 202.306 361.551 202.306L352.818 208.938L338.636 203.319Z" fill="#FBCFB5"/>
<path d="M333.414 207.957C333.414 207.957 335.148 200.719 340.37 201.712C345.593 202.704 357.447 209.144 360.503 207.957C363.559 206.77 367.466 203.93 369.47 204.934L365.938 209.318C365.938 209.318 375.016 204.088 376.578 207.301L361.474 215.792C361.474 215.792 339.379 213.583 333.414 207.957Z" fill="#FBCFB5"/>
<path d="M200.395 340.275C199.243 339.866 198.439 338.823 198.315 337.609C196.825 323.171 189.611 233.644 235.153 196.819C235.153 196.819 237.766 189.992 259.232 206.772C280.7 223.55 269.206 241.138 264.067 265.396C257.849 294.748 246.936 318.744 251.764 336.806C252.097 338.052 251.44 339.361 250.229 339.807C233.551 345.944 216.94 346.147 200.395 340.275Z" fill="#299E63"/>
<path d="M252.919 169.994C252.905 171.267 234.719 197.069 234.719 197.069C234.719 197.069 237.983 203.491 253.566 208.705L267.017 181.078L252.919 169.994Z" fill="#FBCFB5"/>
<path d="M245.765 258.58C245.765 258.58 280.268 287.444 317.526 274.85C319.837 274.069 322.363 274.239 324.52 275.376L335.232 281.027C339.728 283.399 345.296 281.841 347.904 277.484C349.391 274.997 350.661 272.156 350.915 269.436L329.955 260.961L331.501 258.395C331.501 258.395 321.27 257.529 318.59 264.855C318.59 264.855 299.099 272.952 266.229 236.839C266.229 236.837 251.314 249.506 245.765 258.58Z" fill="#FBCFB5"/>
<path d="M243.909 258.282C243.796 258.282 243.681 258.25 243.579 258.18C229.051 248.376 222.217 232.55 222.149 232.392C222.022 232.091 222.162 231.745 222.461 231.618C222.762 231.489 223.109 231.63 223.235 231.93C223.301 232.086 230.008 247.598 244.237 257.203C244.507 257.387 244.579 257.753 244.396 258.022C244.285 258.192 244.099 258.282 243.909 258.282Z" fill="#228553"/>
<path d="M265.548 236.346C265.353 236.346 265.163 236.251 265.05 236.075C265.007 236.007 260.567 229.106 252.115 213.985C249.516 209.336 246.098 206.392 241.96 205.234C235.108 203.322 228.503 206.991 228.437 207.028C228.152 207.184 227.794 207.091 227.631 206.806C227.471 206.523 227.568 206.164 227.853 206.001C228.138 205.84 234.932 202.044 242.268 204.095C246.725 205.336 250.386 208.47 253.145 213.406C261.577 228.488 265.998 235.365 266.043 235.433C266.22 235.706 266.141 236.07 265.867 236.247C265.767 236.317 265.658 236.346 265.548 236.346Z" fill="#228553"/>
<path d="M267.236 155.208C267.236 155.208 273.708 170.057 274.14 177.849C274.573 185.641 276.257 190.699 267.236 192.269C258.216 193.838 250.616 189.35 246.499 181.587C246.499 181.587 240.047 169.625 241.496 164.725C242.943 159.828 267.236 155.208 267.236 155.208Z" fill="#FBCFB5"/>
<path d="M249.58 176.004L250.094 175.778C250.748 175.491 251.026 174.713 250.698 174.08C249.426 171.624 246.947 165.999 250.15 164.687C254.279 162.996 270.634 159.665 274.161 153.867C277.552 148.296 274.548 141.105 270.032 139.059C269.729 138.921 269.373 139.032 269.219 139.323L268.843 140.036C268.585 140.522 267.866 140.45 267.712 139.92C267.564 139.412 266.888 139.314 266.607 139.762C265.523 141.496 262.593 144.307 254.763 145.752C243.635 147.803 236.276 152.303 236.093 159.984C236.082 160.472 235.561 160.744 235.144 160.488C234.323 159.988 233.007 159.753 231.251 161.23C228.195 163.796 229.444 170.455 236.145 175.934C236.464 176.194 236.46 176.692 236.115 176.916C234.9 177.705 233.091 179.584 237.782 182.089C242.635 184.68 246.259 184.468 247.653 184.237C248 184.181 248.224 183.844 248.149 183.5L246.66 176.748C246.576 176.366 246.866 176.004 247.257 176.004H249.58Z" fill="#464F54"/>
<path d="M249.86 177.429C249.86 177.429 247.393 167.943 243.135 170.602C238.877 173.261 245.344 181.23 248.767 181.585L249.86 177.429Z" fill="#FBCFB5"/>
<path d="M324.52 275.376C324.52 275.376 333.287 283.944 334.981 282.695C335.583 282.252 337.102 280.64 338.575 278.845C339.614 277.578 339.723 275.79 338.831 274.415L336.764 271.227C334.793 268.19 330.576 267.552 327.841 269.929C326.46 271.127 325.211 272.864 324.52 275.376Z" fill="#FBCFB5"/>
<path d="M465.492 337.229C460.767 314.809 456.041 301.83 440.22 259.335C435.242 245.963 430.72 232.432 432.906 218.333L435.36 202.498C435.36 202.498 466.105 192.106 500.187 202.06C500.187 202.06 546.685 222.236 515.102 321.889C500.866 337.798 484.205 342.332 465.492 337.229Z" fill="#F57B31"/>
<path d="M440.594 182.288L448.566 201.42C449.069 202.627 450.158 203.489 451.45 203.711C456.048 204.497 467.165 205.727 474.465 200.932C475.334 200.359 475.556 199.179 474.961 198.324L460.231 177.2L440.594 182.288Z" fill="#FBCFB5"/>
<path d="M460.256 272.202C459.158 272.491 458.613 273.724 459.138 274.73L482.202 318.907C482.591 319.653 483.454 320.021 484.262 319.789L559.707 298.029C560.647 297.758 561.188 296.779 560.916 295.84L547.921 250.899C547.653 249.977 546.698 249.436 545.768 249.681L460.256 272.202Z" fill="#F5B22B"/>
<path d="M465.123 267.01C464.043 267.268 463.43 268.41 463.814 269.45L482.277 319.546C482.612 320.458 483.596 320.955 484.529 320.686L559.748 298.992C560.685 298.723 561.251 297.773 561.045 296.824L550.621 248.606C550.401 247.591 549.392 246.956 548.38 247.195L465.123 267.01Z" fill="#F7BE4D"/>
<path d="M471.674 261.954C470.354 262.155 469.485 263.433 469.786 264.733L482.327 318.816C482.623 320.093 483.931 320.862 485.192 320.498L559.27 299.132C560.461 298.789 561.163 297.563 560.853 296.362L549.46 252.217C549.166 251.08 548.059 250.35 546.897 250.526L471.674 261.954Z" fill="#F5B22B"/>
<path d="M531.64 282.578C537.39 239.193 503.92 205.834 503.92 205.834L484.006 229.024C499.125 247.849 506.312 265.099 509.595 278.646C513.95 277.38 524.431 275.379 531.64 282.578Z" fill="#F57B31"/>
<path d="M509.595 279.878C509.038 279.878 508.533 279.501 508.397 278.936C504.35 262.234 495.82 245.701 483.046 229.796C482.621 229.264 482.705 228.489 483.237 228.064C483.766 227.638 484.545 227.722 484.97 228.253C497.973 244.443 506.663 261.303 510.797 278.357C510.957 279.019 510.55 279.684 509.889 279.845C509.787 279.867 509.69 279.878 509.595 279.878Z" fill="#CE6729"/>
<path d="M509.595 278.646C512.646 291.239 512.325 300.634 511.86 305.118C511.686 306.809 510.326 308.13 508.628 308.247C506.699 308.383 504.074 308.559 501.728 308.695C499.15 308.844 496.289 307.216 494.374 305.855C493.396 305.161 492.133 306.242 492.678 307.309C494.107 310.101 497.731 312.584 500.23 314.047C501.138 314.579 500.968 315.935 499.956 316.222L489.271 319.248C506.828 335.77 518.421 317.283 518.421 317.283C526.171 305.321 530.178 293.624 531.64 282.576C524.431 275.379 513.95 277.38 509.595 278.646Z" fill="#FBCFB5"/>
<path d="M448.838 153.015C448.503 153.329 434.706 180.393 434.706 180.393L450.343 187.934L467.235 164.226C467.235 164.223 454.443 147.744 448.838 153.015Z" fill="#FBCFB5"/>
<path d="M460.129 167.068L452.331 180.054C452.213 180.251 452.071 180.429 451.903 180.585C450.975 181.449 447.799 183.959 445.343 180.54C443.249 177.628 441.286 174.978 439.181 173.886C437.952 173.248 436.44 173.757 435.817 174.991C434.532 177.535 432.044 182.72 430.48 187.638C430.088 188.87 430.724 190.193 431.924 190.679C435.091 191.961 441.348 194.279 446.9 195.043C447.813 195.17 448.716 194.786 449.259 194.042C451.647 190.772 458.382 181.637 460.679 179.349C462.814 177.223 466.755 178.026 468.53 178.535C469.204 178.729 469.922 178.634 470.522 178.274C472.323 177.191 475.468 174.492 472.591 169.922C471.875 168.784 472.24 167.272 473.362 166.534C475.375 165.212 477.557 162.731 475.477 158.715C473.372 154.647 469.612 154.283 467.051 154.595C465.92 154.733 464.77 154.141 464.335 153.087C464.143 152.619 463.76 152.219 463.047 152.074C461.705 151.803 460.824 150.577 461.087 149.234C461.537 146.932 461.198 143.943 457.519 141.924C450.773 138.218 444.863 144.255 443.36 149.352C441.857 154.448 449.402 158.05 454.146 158.652C457.632 159.093 459.543 162.894 460.312 164.879C460.595 165.603 460.528 166.406 460.129 167.068Z" fill="#464F54"/>
<path d="M457.75 184.122C457.75 184.122 460.749 175.353 464.591 175.674C468.43 175.995 471.454 179.817 466.694 184.113C460.774 189.458 457.75 184.122 457.75 184.122Z" fill="#FBCFB5"/>
<path d="M578.688 501.284C574.96 504.588 562.831 505.024 562.831 505.024C519.143 400.282 500.927 371.447 500.927 371.447C507.236 410.981 502.287 512.461 502.287 512.461C495.078 515.638 485.783 512.461 485.783 512.461C485.197 447.737 476.074 378.19 464.31 333.688C493.84 333.025 509.887 326.594 515.014 322.544C539.626 362.183 578.688 501.284 578.688 501.284Z" fill="#464F54"/>
</g>
</svg>
